<svg width="12" height="11" viewBox="0 0 12 11" fill="none" xmlns="http://www.w3.org/2000/svg">
<path d="M10.8906 5.33876L0.298777 0.0212614C0.255727 -0.000292665 0.206335 -0.00538322 0.159469 0.00599396C0.0518022 0.0325415 -0.0153758 0.141441 0.0111681 0.250387L1.10074 4.71208C1.11717 4.77922 1.16654 4.83371 1.23238 4.85528L3.10271 5.49838L1.23303 6.13967C1.16716 6.16244 1.11774 6.21561 1.10251 6.28274L0.00607424 10.7497C-0.00534709 10.7966 -0.00030496 10.846 0.0212055 10.8878C0.0705508 10.9879 0.192116 11.0285 0.293461 10.9791L10.8904 5.70229C10.9297 5.68331 10.9613 5.65039 10.9816 5.6124C11.0311 5.51109 10.9906 5.38948 10.8906 5.33876ZM1.25547 9.48112L1.89379 6.87718L5.63315 5.59588C5.66229 5.58576 5.68636 5.56297 5.69651 5.53257C5.71427 5.47938 5.68643 5.42237 5.63325 5.40334L1.89513 4.11967L1.26186 1.52525L9.21362 5.51781L1.25547 9.48112Z" fill="black"/>
</svg>
