<svg width="16" height="12" viewBox="0 0 16 12" fill="none" xmlns="http://www.w3.org/2000/svg">
<path fill-rule="evenodd" clip-rule="evenodd" d="M8.0007 1.709e-07C7.43208 -0.000211395 6.87588 0.196013 6.40087 0.564411C5.92586 0.932809 5.55287 1.45722 5.32802 2.07281C5.10318 2.6884 5.03633 3.36817 5.13575 4.02805C5.23518 4.68794 5.4965 5.29902 5.88743 5.78571C5.07454 6.31558 4.42639 7.13749 4.03739 8.13175C3.64838 9.12601 3.53884 10.2407 3.72471 11.3134C3.75809 11.5072 3.84728 11.6814 3.97716 11.8065C4.10704 11.9316 4.26963 12 4.43737 12H11.564C11.7318 12 11.8944 11.9316 12.0242 11.8065C12.1541 11.6814 12.2433 11.5072 12.2767 11.3134C12.4627 10.2406 12.3533 9.12569 11.9643 8.13126C11.5752 7.13682 10.927 6.31477 10.114 5.78486C10.5047 5.29812 10.7658 4.68713 10.8651 4.02738C10.9643 3.36764 10.8974 2.68806 10.6726 2.07264C10.4478 1.45723 10.0749 0.93294 9.60006 0.564584C9.1252 0.196228 8.56917 -5.27792e-05 8.0007 1.709e-07ZM11.3342 4.95343C11.5277 4.494 11.6367 3.97629 11.6367 3.42857C11.6367 2.88086 11.5277 2.36314 11.3342 1.90371C11.5051 1.63267 11.7196 1.40395 11.9655 1.23061C12.2114 1.05728 12.4839 0.942731 12.7673 0.893503C13.0508 0.844274 13.3397 0.861332 13.6175 0.943703C13.8954 1.02607 14.1567 1.17214 14.3867 1.37357C14.6166 1.575 14.8107 1.82784 14.9578 2.11767C15.1048 2.40749 15.202 2.72861 15.2438 3.0627C15.2855 3.3968 15.2711 3.73731 15.2012 4.06481C15.1313 4.39231 15.0074 4.70038 14.8365 4.97143C15.1977 5.29079 15.491 5.70491 15.6929 6.18098C15.8949 6.65706 16 7.18202 16 7.71429V8.57143C16 8.79876 15.9234 9.01677 15.787 9.17752C15.6506 9.33827 15.4657 9.42857 15.2728 9.42857H13.0308C12.9212 8.6665 12.6673 7.94332 12.2881 7.31268C11.9089 6.68205 11.4141 6.16015 10.8405 5.78571C11.0288 5.55123 11.1882 5.28662 11.3139 4.99971C11.3245 4.99019 11.3351 4.98076 11.3459 4.97143L11.3342 4.95343ZM5.16022 5.78486C4.97219 5.55058 4.81306 5.28627 4.68753 4.99971C4.67692 4.9902 4.66626 4.98077 4.65554 4.97143L4.66717 4.95343C4.46748 4.47963 4.36392 3.95762 4.36465 3.42857C4.36465 2.88086 4.47373 2.36314 4.66717 1.90371C4.49628 1.63267 4.28176 1.40395 4.03587 1.23061C3.78999 1.05728 3.51754 0.942731 3.23409 0.893503C2.95065 0.844274 2.66175 0.861332 2.38389 0.943703C2.10604 1.02607 1.84467 1.17214 1.61471 1.37357C1.38475 1.575 1.1907 1.82784 1.04364 2.11767C0.896587 2.40749 0.799401 2.72861 0.757635 3.0627C0.715869 3.3968 0.730341 3.73731 0.800225 4.06481C0.870109 4.39231 0.994036 4.70038 1.16493 4.97143C0.668587 5.40897 0.304007 6.02218 0.124492 6.72141C-0.0550231 7.42064 -0.0400577 8.16922 0.1672 8.85771C0.217375 9.02461 0.31017 9.1691 0.432833 9.27132C0.555496 9.37354 0.702007 9.42847 0.852231 9.42857H2.96986C3.07944 8.66658 3.33316 7.94345 3.71222 7.31282C4.09127 6.68219 4.58593 6.16025 5.15949 5.78571L5.16022 5.78486Z" fill="#646464"/>
</svg>
